<?xml version="1.0" encoding="utf-8"?>
<!-- Generator: Adobe Illustrator 16.0.4, SVG Export Plug-In . SVG Version: 6.00 Build 0)  -->
<!DOCTYPE svg PUBLIC "-//W3C//DTD SVG 1.1//EN" "http://www.w3.org/Graphics/SVG/1.1/DTD/svg11.dtd">
<svg version="1.1" id="Layer_1" xmlns="http://www.w3.org/2000/svg" xmlns:xlink="http://www.w3.org/1999/xlink" x="0px" y="0px"
	 width="72px" height="72px" viewBox="0 0 72 72" enable-background="new 0 0 72 72" xml:space="preserve">
<g id="nC2m1e_1_">
	<g>
		<path fill-rule="evenodd" clip-rule="evenodd" fill="#FFFFFF" d="M9.792,69.357c-0.881-0.173-1.664-0.327-2.524-0.496
			c0.273-1.361,0.464-2.688,0.812-3.973c0.887-3.267,1.838-6.516,2.783-9.766c0.102-0.351,0.073-0.54-0.244-0.758
			c-2.436-1.674-4.164-3.97-5.6-6.602c1.53,0.461,3.06,0.922,4.784,1.442c-1.616-2.807-2.596-5.68-3.369-8.693
			c1.277,0.85,2.554,1.699,3.886,2.586c2.52-8.567,8.021-15.051,14.237-21.045c0.055,0.013,0.109,0.025,0.165,0.039
			c0.14,1.93,0.28,3.86,0.419,5.79c0.03,0.011,0.06,0.022,0.089,0.033c0.054-0.123,0.128-0.241,0.16-0.369
			c0.604-2.453,1.19-4.91,1.819-7.357c0.087-0.34,0.312-0.704,0.58-0.928c2.722-2.278,5.609-4.327,8.664-6.138
			c0.148-0.088,0.295-0.177,0.447-0.258c0.045-0.024,0.105-0.02,0.266-0.046c-1.02,2.109-2.009,4.155-2.999,6.201
			c0.032,0.02,0.063,0.04,0.094,0.06c0.452-0.451,0.912-0.895,1.354-1.355c2.442-2.541,4.878-5.088,7.322-7.627
			c0.183-0.19,0.388-0.39,0.622-0.494c4.155-1.83,8.354-3.541,12.772-4.644c0.143-0.036,0.292-0.045,0.483,0.028
			c-1.647,1.118-3.295,2.236-4.942,3.354c0.018,0.038,0.035,0.075,0.052,0.113c0.667-0.188,1.334-0.372,1.999-0.565
			c3.692-1.076,7.39-2.136,11.07-3.249c0.729-0.22,1.272,0.049,1.822,0.381c1.969,1.188,2.544,3.011,2.257,5.179
			c-0.251,1.9-1.031,3.619-2.109,5.166c-1.026,1.472-2.201,2.84-3.346,4.226c-0.2,0.242-0.553,0.42-0.866,0.497
			c-3.049,0.743-6.105,1.458-9.159,2.182c-0.054,0.013-0.105,0.035-0.166,0.163c2.052,0.172,4.103,0.344,6.154,0.516
			c0.02,0.048,0.04,0.096,0.061,0.144c-0.704,0.461-1.407,0.922-2.111,1.383c-0.016,0.01-0.036,0.014-0.052,0.025
			c-1.311,0.949-2.742,1.267-4.373,1.124c-2.02-0.177-4.057-0.15-6.087-0.209c-0.259-0.007-0.519-0.001-0.778-0.001
			c-0.012,0.048-0.022,0.096-0.034,0.144c1.867,0.668,3.735,1.336,5.686,2.034c-0.183,0.154-0.282,0.261-0.402,0.337
			c-5.86,3.726-10.424,8.732-14.265,14.452c-0.917,1.367-1.782,2.772-2.75,4.103c-0.581,0.799-1.317,1.484-1.978,2.226
			c-0.325,0.364-0.565,0.281-0.875-0.059c-1.15-1.258-2.329-2.49-3.5-3.729c-0.087-0.093-0.195-0.167-0.378-0.197
			c0.254,0.544,0.505,1.089,0.763,1.631c0.543,1.141,1.077,2.287,1.643,3.417c0.179,0.356,0.192,0.579-0.206,0.771
			c-1.198,0.577-2.386,1.174-3.651,1.799c-0.602-2.535-1.163-4.9-1.724-7.266c-0.047,0.005-0.093,0.009-0.14,0.014
			c-0.091,1.116-0.183,2.233-0.272,3.35c-0.108,1.355-0.22,2.711-0.318,4.067c-0.023,0.32-0.111,0.53-0.466,0.608
			c-2.121,0.47-4.264,0.728-6.438,0.708c-0.054,0-0.108-0.029-0.288-0.081C23.129,35.492,35.205,22.641,53.26,15.38
			c-0.316-0.778-0.622-1.531-0.943-2.322c-0.169,0.042-0.316,0.062-0.45,0.116c-11.558,4.69-21.205,11.856-28.533,22.027
			c-4.326,6.004-7.538,12.57-9.738,19.619c-1.162,3.722-2.132,7.505-3.151,11.271C10.161,67.137,10.015,68.22,9.792,69.357z"/>
	</g>
</g>
</svg>
