<?xml version="1.0" encoding="utf-8"?>
<!-- Generator: Adobe Illustrator 16.0.4, SVG Export Plug-In . SVG Version: 6.00 Build 0)  -->
<!DOCTYPE svg PUBLIC "-//W3C//DTD SVG 1.1//EN" "http://www.w3.org/Graphics/SVG/1.1/DTD/svg11.dtd">
<svg version="1.1" id="Layer_1" xmlns="http://www.w3.org/2000/svg" xmlns:xlink="http://www.w3.org/1999/xlink" x="0px" y="0px"
	 width="72px" height="72px" viewBox="0 0 72 72" enable-background="new 0 0 72 72" xml:space="preserve">
<path fill-rule="evenodd" clip-rule="evenodd" fill="#FFFFFF" d="M65.435,28.884c-2.556-3.281-6.032-5.125-10.061-5.798
	c-3.293-0.55-6.608-1.032-9.703-2.271c-2.867-1.147-5.61-2.613-8.379-3.994c-3.439-1.716-6.819-3.557-10.491-4.752
	c-2.892-0.941-5.761-1.168-8.511,0.471c-1.744,1.04-3.604,1.708-5.621,1.99c-1.478,0.207-2.46,1.095-2.65,2.579
	c-0.207,1.611-0.376,3.255-0.287,4.87c0.047,0.844,0.263,1.474,0.628,1.892c-1.22,4.966-2.325,10.604-1.816,12.366
	c-0.469,0.847-0.328,1.619,0.413,2.562c0.273,0.347,0.574,0.68,0.903,0.973c3.583,3.188,5.67,7.229,6.665,11.855
	c0.31,1.44,1.011,2.449,2.378,2.933c1.556,0.55,3.112,1.137,4.714,1.513c6.895,1.618,13.588,3.773,19.898,7.045
	c2.444,1.268,5.076,1.939,7.83,2.164c2.311,0.188,4.68-1.33,5.144-3.44c0.227-1.034,0.355-2.09,0.509-3.139
	c0.04-0.274,0.042-0.564,0.001-0.839c-0.104-0.699-0.209-1.408-0.853-1.954c-0.151,0.971-0.291,1.868-0.431,2.766
	c-0.072-0.012-0.144-0.023-0.215-0.035c-0.043-1.559,0.12-3.155-0.868-4.742c-0.165,0.589-0.262,1.011-0.4,1.418
	c-0.358,1.055-0.72,2.108-1.12,3.147c-0.062,0.161-0.342,0.238-0.521,0.354c0.685-3.35,0.718-3.793,0.152-4.641
	c-0.271,0.451-0.512,0.862-0.761,1.269c-0.269,0.438-0.515,0.892-0.823,1.299c-0.265,0.351-0.604,0.646-0.91,0.965
	c-0.046-0.049-0.092-0.099-0.138-0.147c0.539-1.806,1.454-3.553,0.865-5.556c-0.337,0.327-0.562,0.696-0.8,1.058
	c-0.654,0.99-1.303,1.985-1.98,2.96c-0.123,0.177-0.378,0.262-0.571,0.39c-0.044-0.051-0.087-0.102-0.131-0.151
	c0.721-1.184,1.493-2.357,0.866-3.968c-0.565,1.104-0.947,2.177-2.112,2.886c0.538-1.006,1.144-1.812,0.749-3.013
	c-0.623,1.151-1.424,1.922-2.641,2.385c0.741-2.156,0.77-2.644,0.281-3.451c-0.39,0.691-0.779,1.425-1.219,2.128
	c-0.083,0.133-0.363,0.143-0.553,0.209c0.021-0.181,0.001-0.38,0.071-0.54c0.333-0.758,0.542-1.508,0.047-2.321
	c-1.156,1.941-1.352,2.062-2.204,1.346c0.467-0.562,0.941-1.141,0.713-2.066c-0.212,0.235-0.345,0.417-0.511,0.561
	c-0.191,0.165-0.394,0.34-0.623,0.437c-0.745,0.312-1.196-0.045-1.131-0.827c0.028-0.336-0.047-0.681-0.075-1.021
	c-0.244,0.17-0.298,0.345-0.385,0.501c-0.084,0.15-0.202,0.281-0.317,0.437c-2.14-1.722-3.823-3.746-5.252-6.024
	c-0.572-0.913-1.31-1.764-2.122-2.484c0.371-0.652,1.119-1.978,1.945-3.483c1.384-0.564,2.688-1.139,3.905-1.409
	c0.707-0.157,1.723-0.373,2.912-0.625c-0.059,0.276-0.233,0.668-0.545,1.251c0.887,0.008,1.251-0.702,1.848-1.376
	c0.256,1.319-0.587,2.049-1.168,2.996c1.611-0.08,2.496-1.008,3.215-2.153c0.221,0.049,0.399,0.116,0.58,0.124
	c0.736,0.03,0.912,0.47,0.751,1.081c-0.207,0.784-0.473,1.553-0.719,2.325c-0.062,0.197-0.146,0.388-0.255,0.672
	c1.667-0.722,2.536-1.941,2.927-3.717c0.606,0.678,0.302,1.229,0.312,1.843c0.309-0.271,0.617-0.54,1.012-0.886
	c0,1.402,0,2.699,0,4.021c1.472-0.74,1.627-2.3,2.194-3.656c0.045,0.857,0.053,1.709-0.105,2.528
	c-0.16,0.824-0.485,1.616-0.777,2.548c2.438-1.199,2.886-3.382,3.231-5.656c0.92,0.543,0.81,1.386,0.783,2.255
	c0.875-0.532,0.886-1.376,1.116-2.218c0.246,0.173,0.527,0.382,0.54,0.605c0.066,1.205,0.092,2.414,0.08,3.621
	c-0.009,0.774-0.107,1.548-0.177,2.481c0.941-0.445,1.468-1.026,1.771-1.724c0.647-1.489,1.226-3.011,1.767-4.542
	c0.153-0.438,0.312-0.637,0.655-0.564c1.177,2.456,0.653,4.935,0.318,7.438c2.118-1.557,2.777-3.971,3.79-6.329
	c0.323,1.675-0.518,3.008-0.8,4.613c0.967-0.455,1.538-1.075,1.993-1.812c0.858-1.39,1.104-2.95,1.243-4.541
	c0.018-0.208,0.083-0.528,0.222-0.592c1.25-0.582,1.431-1.702,1.466-2.871C67.162,31.877,66.512,30.267,65.435,28.884z"/>
</svg>
